<svg width="30" height="40" xmlns="http://www.w3.org/2000/svg">
 <g>
  <rect fill="#343a40" id="canvas_background" height="42" width="32" y="-1" x="-1"/>
 </g>
 <g>
  <path stroke="#fff" id="svg_1" d="m22.944825,7.470292c-2.159756,-2.09729 -4.489171,-3.77735 -6.40001,-4.006393c-0.104025,-0.014857 -0.211765,-0.023523 -0.325697,-0.025999l-12.575872,0c-0.20062,0 -0.398762,0.077998 -0.539939,0.222853c-0.139938,0.14114 -0.222911,0.339231 -0.222911,0.541036l0,31.880292c0,0.200567 0.078019,0.392468 0.222911,0.53856c0.144892,0.143616 0.335604,0.221614 0.539939,0.221614l22.741833,0c0.20062,0 0.39257,-0.07676 0.537462,-0.221614c0.144892,-0.144854 0.225387,-0.336755 0.225387,-0.53856l0,-21.214323c-0.044582,-2.46252 -1.973997,-5.147893 -4.203103,-7.397466zm2.674927,27.845423l-21.216134,0l0,-30.35499l11.816738,0l0,0.002476c0.515171,-0.030952 0.959754,0.477895 1.300312,1.64168c0.309598,1.108072 0.387617,2.5529 0.386378,3.554498c0.002477,0.734175 -0.033437,1.226927 -0.033437,1.226927l-0.060681,0.807221l0.812385,0.008666c0.003715,0 1.877402,0.022285 3.715176,0.439515c1.765947,0.381325 3.146754,1.1415 3.275547,2.001959c0.004954,0.07676 0.006192,0.153521 0.004954,0.225329l0,20.446719l-0.001238,0z" fill-opacity="null" stroke-opacity="null" stroke-width="1.5" fill="#343a40"/>
  <path stroke="#fff" transform="rotate(120.37995910644531 14.845979690551758,22.512178421020508) " id="svg_7" d="m20.734984,14.412559l-2.094146,-1.351595c-0.52836,-0.340677 -1.224565,-0.176709 -1.557487,0.36596l-0.825421,1.349073l4.00619,2.583805l0.826072,-1.348447c0.331658,-0.543315 0.17337,-1.258877 -0.355208,-1.598795l0,0zm-11.606084,12.018819l4.006409,2.583778l6.529782,-10.67418l-4.008316,-2.584453l-6.527876,10.674854l0.000001,0.000001zm-0.611978,3.282786l-0.088487,2.426899l2.090934,-1.135678l1.943072,-1.053501l-3.865111,-2.49423l-0.080407,2.256512l0,0l-0.000001,-0.000001z" fill-opacity="null" stroke-opacity="null" stroke-width="1.5" fill="#343a40"/>
 </g>
</svg>